<svg width="24" height="24" viewBox="0 0 24 24" fill="none" xmlns="http://www.w3.org/2000/svg">
<path d="M10.75 4.6401L6.32 2.4501C3.93 1.2801 1.97 2.47011 1.97 5.09011V19.9301C1.97 21.0701 2.92 22.0001 4.08 22.0001H11.5C12.05 22.0001 12.5 21.5501 12.5 21.0001V7.4101C12.5 6.3601 11.71 5.1101 10.75 4.6401ZM8.97 13.7501H5.5C5.09 13.7501 4.75 13.4101 4.75 13.0001C4.75 12.5901 5.09 12.2501 5.5 12.2501H8.97C9.38 12.2501 9.72 12.5901 9.72 13.0001C9.72 13.4101 9.39 13.7501 8.97 13.7501ZM8.97 9.7501H5.5C5.09 9.7501 4.75 9.4101 4.75 9.0001C4.75 8.59011 5.09 8.2501 5.5 8.2501H8.97C9.38 8.2501 9.72 8.59011 9.72 9.0001C9.72 9.4101 9.39 9.7501 8.97 9.7501Z" fill="#292D32"/>
<path d="M22 18.04V19.5C22 20.88 20.88 22 19.5 22H14.97C14.43 22 14 21.57 14 21.03V18.87C15.07 19 16.2 18.69 17.01 18.04C17.69 18.59 18.56 18.92 19.51 18.92C20.44 18.92 21.31 18.59 22 18.04Z" fill="#292D32"/>
<path d="M22 15.05V15.06C21.92 16.37 20.85 17.42 19.51 17.42C18.12 17.42 17.01 16.29 17.01 14.92C17.01 16.45 15.6 17.68 14 17.37V12C14 11.36 14.59 10.88 15.22 11.02L17.01 11.42L17.49 11.53L19.53 11.99C20.02 12.09 20.47 12.26 20.86 12.51C20.86 12.52 20.87 12.52 20.87 12.52C20.97 12.59 21.07 12.67 21.16 12.76C21.62 13.22 21.92 13.89 21.99 14.87C21.99 14.93 22 14.99 22 15.05Z" fill="#292D32"/>
</svg>
