<svg width="30" height="30" viewBox="0 0 30 30" fill="none" xmlns="http://www.w3.org/2000/svg">
<path d="M7.5 6.3999C6.9875 6.3999 6.5625 5.9749 6.5625 5.4624V3.2749C6.5625 2.7624 6.9875 2.3374 7.5 2.3374C8.0125 2.3374 8.4375 2.7624 8.4375 3.2749V5.4624C8.4375 5.9874 8.0125 6.3999 7.5 6.3999Z" fill="#1D1D1D"/>
<path d="M12.5 6.3999C11.9875 6.3999 11.5625 5.9749 11.5625 5.4624V3.2749C11.5625 2.7624 11.9875 2.3374 12.5 2.3374C13.0125 2.3374 13.4375 2.7624 13.4375 3.2749V5.4624C13.4375 5.9874 13.0125 6.3999 12.5 6.3999Z" fill="#1D1D1D"/>
<path d="M17.5 6.3999C16.9875 6.3999 16.5625 5.9749 16.5625 5.4624V3.2749C16.5625 2.7624 16.9875 2.3374 17.5 2.3374C18.0125 2.3374 18.4375 2.7624 18.4375 3.2749V5.4624C18.4375 5.9874 18.0125 6.3999 17.5 6.3999Z" fill="#1D1D1D"/>
<path d="M27.8125 16.5625C27.8125 13.2875 25.275 10.6375 22.075 10.3625C21.15 8.84995 19.5 7.82495 17.6 7.82495H8.3875C5.4875 7.82495 3.125 10.1875 3.125 13.0875V13.75H22.8625V13.0875C22.8625 12.85 22.825 12.6125 22.7875 12.3875C24.6 12.925 25.9375 14.575 25.9375 16.5625C25.9375 18.525 24.6375 20.1625 22.8625 20.7125V15H3.125V22.2375C3.125 25.1375 5.4875 27.5 8.3875 27.5H17.6C20.35 27.5 22.5875 25.375 22.8125 22.6749C25.6625 22.0999 27.8125 19.575 27.8125 16.5625Z" fill="#1D1D1D"/>
</svg>
