<svg width="23" height="24" viewBox="0 0 23 24" fill="none" xmlns="http://www.w3.org/2000/svg">
<path d="M10.0001 11C10.0001 14.416 9.56308 19.263 5.78708 21.909C5.70008 21.971 5.59908 22 5.50008 22C5.34208 22 5.18808 21.926 5.09008 21.787C4.93208 21.56 4.98608 21.249 5.21308 21.091C8.60808 18.712 9.00008 14.193 9.00008 11C9.00008 9.346 10.3461 8 12.0001 8C13.4221 8 14.6581 9.01 14.9401 10.4C14.9951 10.671 14.8201 10.935 14.5491 10.99C14.2771 11.047 14.0141 10.87 13.9591 10.599C13.7711 9.672 12.9471 8.999 11.9991 8.999C10.8961 8.999 9.99908 9.896 9.99908 10.999L10.0001 11ZM14.5041 14.003C14.2461 13.973 13.9841 14.174 13.9561 14.449C13.7071 16.865 13.0421 20.395 10.1561 23.137C9.95608 23.327 9.94808 23.644 10.1381 23.844C10.2361 23.948 10.3681 23.999 10.5001 23.999C10.6241 23.999 10.7481 23.953 10.8441 23.861C13.9711 20.89 14.6851 17.125 14.9501 14.549C14.9781 14.275 14.7791 14.029 14.5041 14.001V14.003ZM17.2811 20.066C17.0211 19.977 16.7351 20.108 16.6401 20.367C16.2721 21.389 15.8221 22.359 15.3031 23.248C15.1631 23.486 15.2441 23.793 15.4831 23.932C15.5621 23.979 15.6491 24 15.7351 24C15.9071 24 16.0741 23.911 16.1671 23.752C16.7161 22.811 17.1921 21.786 17.5821 20.707C17.6761 20.447 17.5411 20.16 17.2811 20.066ZM12.0851 4C10.1251 4 8.24808 4.84 6.93508 6.304C6.75108 6.51 6.76808 6.826 6.97408 7.01C7.18008 7.195 7.49508 7.178 7.68008 6.972C8.80308 5.719 10.4081 5 12.0851 5C15.3461 5 18.0001 7.653 18.0001 10.915C18.0001 12.31 18.0001 14.644 17.4951 17.233C17.4421 17.504 17.6201 17.767 17.8911 17.82C17.9231 17.826 17.9551 17.829 17.9881 17.829C18.2221 17.829 18.4311 17.663 18.4781 17.425C19.0001 14.739 19.0001 12.346 19.0001 10.915C19.0001 7.103 15.8981 4 12.0851 4ZM6.01908 10.541C6.04108 10.266 5.83708 10.024 5.56208 10.002C5.27608 9.984 5.04508 10.184 5.02208 10.459C5.00708 10.638 5.00008 10.818 5.00008 11C5.00008 17.664 1.80908 18.794 0.436082 18.97C0.163082 19.005 -0.0309184 19.256 0.0040816 19.53C0.0370816 19.783 0.252082 19.967 0.500082 19.967C0.521082 19.967 0.542082 19.967 0.564082 19.963C2.19808 19.753 6.00008 18.459 6.00008 11.001C6.00008 10.847 6.00608 10.692 6.01908 10.541ZM1.50008 14C1.77608 14 2.00008 13.776 2.00008 13.5V11C2.00008 5.486 6.48608 1 12.0001 1C14.1821 1 16.2561 1.693 17.9991 3.005C18.2181 3.171 18.5321 3.129 18.6991 2.906C18.8651 2.685 18.8211 2.372 18.6001 2.206C16.6821 0.763 14.4001 0 11.9991 0C5.93508 0 1.00008 4.935 1.00008 11V13.5C1.00008 13.776 1.22408 14 1.50008 14ZM21.8991 6.207C21.7801 5.959 21.4791 5.854 21.2311 5.977C20.9831 6.097 20.8791 6.397 21.0011 6.645C21.6641 8.009 22.0001 9.474 22.0001 11C22.0001 13.191 22.0001 18.321 19.7711 23.296C19.6581 23.548 19.7711 23.844 20.0231 23.956C20.0891 23.986 20.1591 24 20.2271 24C20.4171 24 20.6001 23.89 20.6831 23.704C23.0001 18.536 23.0001 13.255 23.0001 11C23.0001 9.321 22.6301 7.708 21.8991 6.207Z" fill="white"/>
</svg>
