<svg width="30" height="30" viewBox="0 0 30 30" fill="none" xmlns="http://www.w3.org/2000/svg">
<path d="M27.5 14.0625H24.95C24.5 9.3 20.7 5.4875 15.9375 5.05V2.5C15.9375 1.9875 15.5125 1.5625 15 1.5625C14.4875 1.5625 14.0625 1.9875 14.0625 2.5V5.05C9.3 5.5 5.4875 9.3 5.05 14.0625H2.5C1.9875 14.0625 1.5625 14.4875 1.5625 15C1.5625 15.5125 1.9875 15.9375 2.5 15.9375H5.05C5.5 20.7 9.3 24.5125 14.0625 24.95V27.5C14.0625 28.0125 14.4875 28.4375 15 28.4375C15.5125 28.4375 15.9375 28.0125 15.9375 27.5V24.95C20.7 24.5 24.5125 20.7 24.95 15.9375H27.5C28.0125 15.9375 28.4375 15.5125 28.4375 15C28.4375 14.4875 28.0125 14.0625 27.5 14.0625ZM15 18.9C12.85 18.9 11.1 17.15 11.1 15C11.1 12.85 12.85 11.1 15 11.1C17.15 11.1 18.9 12.85 18.9 15C18.9 17.15 17.15 18.9 15 18.9Z" fill="#292D32"/>
</svg>
