<svg width="30" height="30" viewBox="0 0 30 30" fill="none" xmlns="http://www.w3.org/2000/svg">
<path d="M4.95 8.52511L12.15 3.48761C14.1125 2.11261 17.125 2.18761 19.0125 3.65011L25.275 8.5376C26.525 9.5126 27.5125 11.5126 27.5125 13.0876V21.7126C27.5125 24.9001 24.925 27.5001 21.7375 27.5001H8.2625C5.075 27.5001 2.4875 24.9126 2.4875 21.7251V13.2501C2.4875 11.5626 3.575 9.48761 4.95 8.52511ZM14.0625 22.5001C14.0625 23.0126 14.4875 23.4376 15 23.4376C15.5125 23.4376 15.9375 23.0126 15.9375 22.5001V18.7501C15.9375 18.2376 15.5125 17.8126 15 17.8126C14.4875 17.8126 14.0625 18.2376 14.0625 18.7501V22.5001Z" fill="#1D1D1D"/>
</svg>
