<svg width="24" height="24" viewBox="0 0 24 24" fill="none" xmlns="http://www.w3.org/2000/svg">
<path d="M3.38 8.45C4.42999 3.83 8.46 1.75 12 1.75C12 1.75 12 1.75 12.01 1.75C15.54 1.75 19.58 3.82 20.63 8.44C21.8 13.6 18.64 17.97 15.78 20.72C14.72 21.74 13.36 22.25 12 22.25C10.64 22.25 9.28 21.74 8.23 20.72C5.37 17.97 2.21 13.61 3.38 8.45ZM12 13.46C13.74 13.46 15.15 12.05 15.15 10.31C15.15 8.57 13.74 7.16 12 7.16C10.26 7.16 8.85 8.57 8.85 10.31C8.85 12.05 10.26 13.46 12 13.46Z" fill="#292D32"/>
</svg>
