<svg width="28" height="28" viewBox="0 0 28 28" fill="none" xmlns="http://www.w3.org/2000/svg">
<path d="M16.1624 3.38755L18.3624 7.78755C18.6624 8.40005 19.4624 8.98755 20.1374 9.10005L24.1249 9.76255C26.6749 10.1875 27.2749 12.0375 25.4374 13.8625L22.3374 16.9625C21.8124 17.4875 21.5249 18.5 21.6874 19.225L22.5749 23.0625C23.2749 26.1 21.6624 27.2751 18.9749 25.6876L15.2374 23.475C14.5624 23.075 13.4499 23.075 12.7624 23.475L9.02489 25.6876C6.34989 27.2751 4.72489 26.0875 5.42489 23.0625L6.31239 19.225C6.47489 18.5 6.18739 17.4875 5.66239 16.9625L2.56239 13.8625C0.737386 12.0375 1.32489 10.1875 3.87489 9.76255L7.86239 9.10005C8.52489 8.98755 9.32489 8.40005 9.62489 7.78755L11.8249 3.38755C13.0249 1.00005 14.9749 1.00005 16.1624 3.38755Z" stroke="#292D32" stroke-width="1.5" stroke-linecap="round" stroke-linejoin="round"/>
</svg>
