<svg width="30" height="30" viewBox="0 0 30 30" fill="none" xmlns="http://www.w3.org/2000/svg">
<path d="M8.525 6.5625C10.6625 6.5625 13.2125 7.375 13.2125 11.25V18.75C13.2125 22.625 10.6625 23.4375 8.525 23.4375C6.3875 23.4375 3.8375 22.625 3.8375 18.75V11.25C3.8375 7.375 6.3875 6.5625 8.525 6.5625Z" fill="#1D1D1D"/>
<path d="M21.475 6.5625C23.6125 6.5625 26.1625 7.375 26.1625 11.25V18.75C26.1625 22.625 23.6125 23.4375 21.475 23.4375C19.3375 23.4375 16.7875 22.625 16.7875 18.75V11.25C16.7875 7.375 19.3375 6.5625 21.475 6.5625Z" fill="#1D1D1D"/>
<path d="M13.2125 14.0625H16.7875V15.9375H13.2125V14.0625Z" fill="#1D1D1D"/>
<path d="M1.875 19.0625C2.3875 19.0625 2.8125 18.6375 2.8125 18.125V11.875C2.8125 11.3625 2.3875 10.9375 1.875 10.9375C1.3625 10.9375 0.9375 11.3625 0.9375 11.875V18.125C0.9375 18.6375 1.3625 19.0625 1.875 19.0625Z" fill="#1D1D1D"/>
<path d="M28.125 19.0625C28.6375 19.0625 29.0625 18.6375 29.0625 18.125V11.875C29.0625 11.3625 28.6375 10.9375 28.125 10.9375C27.6125 10.9375 27.1875 11.3625 27.1875 11.875V18.125C27.1875 18.6375 27.6125 19.0625 28.125 19.0625Z" fill="#1D1D1D"/>
</svg>
